# xmcd
#
# Track frame offsets:
#	150
#	16394
#	32922
#	54317
#	73031
#	88544
#	105128
#	123097
#	139934
#	161582
#	176306
#	191713
#	204588
#	223962
#	241633
#	257503
#	272251
#	291813
#	305942
#
# Disc length: 4399 seconds
#
# Revision: 1
# Processed by: cddbd v1.5.2PL0 Copyright (c) Steve Scherf et al.
# Submitted via: audiograbber 1.83.01
#
DISCID=09112d13
DTITLE=Dmc - Essential Hits 59
DYEAR=2010
DGENRE=Pop
TTITLE0=Cheryl Cole - Parachute (Album Version)
TTITLE1=Jedward Ft Vanilla Ice - Under Pressure (Ice Ice Baby)(Radio Edit)
TTITLE2=Lady Gaga Ft Beyonce - Telephone (Alphabeat Mix)
TTITLE3=Rihanna Ft Young Jeezy - Hard
TTITLE4=Alphabeat - Hole In My Heart (Radio Edit)
TTITLE5=Sugababes - Wear My Kiss (Radio Edit)
TTITLE6=Three 6 Mafia Vs Tiesto Ft Sean Kingston and Flo Rida - Feel It (Radio Ed
TTITLE6=it)
TTITLE7=LMFAO - La La La (Main With Intro)
TTITLE8=Steve Hoang - No Coming Back (Ill Blu Dark Mix)
TTITLE9=Jason Derulo - In My Head (R&B Mix)
TTITLE10=Mary J Blige - I Am
TTITLE11=Kesha Ft 3oh!3 - Blah Blah Blah
TTITLE12=Jay-Z Ft Bono, The Edge and Rihanna - Stranded (Haiti Mon Amor)
TTITLE13=Snoop Dogg - I Wanna Rock (Explicit Lyrics)
TTITLE14=A.Y.O. Ft Ironik - Far Away (Radio Edit)
TTITLE15=McLean - My Name (Radio Edit)
TTITLE16=Boyzone - Gave It All Away
TTITLE17=Demi Lovato - Remember December (Radio Edit)
TTITLE18=Hot Chip - One Life Stand
EXTD=
EXTT0=
EXTT1=
EXTT2=
EXTT3=
EXTT4=
EXTT5=
EXTT6=
EXTT7=
EXTT8=
EXTT9=
EXTT10=
EXTT11=
EXTT12=
EXTT13=
EXTT14=
EXTT15=
EXTT16=
EXTT17=
EXTT18=
PLAYORDER=
